<svg width="80" height="18" viewBox="0 0 80 18" fill="none" xmlns="http://www.w3.org/2000/svg">
<path d="M1 6.59999H2.50438L3.85832 4.36H5.81401L6.5662 7.71999L8.07058 0.999999L9.57496 8.83999H11.2298L11.982 12.2L13.4863 3.23999L17.0969 9.95998L17.9995 6.59999H20.4065L22.8135 9.95998H23.8666L24.9196 12.2L33.1616 8.83999L34.3972 0.999999L36.1045 8.83999L38.7599 4.36L40.9392 6.04021L42.594 3.24022L45.3019 8.8402H47.8594L49.2133 6.04021L51.6203 12.7602L52.5229 8.8402L53.7264 11.0802L54.4786 8.8402L56.8856 16.6802H58.1761L59.2272 17L59.744 14.4402L61.3988 12.7602L63.2345 11.0797L64.4958 14.4403L66.808 16.6804L71.2224 16.6802L72.6938 14.4402L74.7959 16.6802H75.8469L76.7434 14.4402L79 8.8402" stroke="#6C8C3C" strokeLinecap="round"/>
</svg>
