<svg width="79" height="19" viewBox="0 0 79 19" fill="none" xmlns="http://www.w3.org/2000/svg">
<path d="M1 6.09999H2.50438L3.85832 3.86H5.81401L6.5662 7.21999L8.07058 0.499999L9.57496 8.33999H11.2298L11.982 11.7L13.4863 2.73999L17.0969 9.45998L17.9995 6.09999H20.4065L22.8135 9.45998H23.8666L24.9196 11.7L33.1616 8.33999L34.3972 0.499999L36.1045 8.33999L38.7599 3.86L40.9392 5.54021L42.594 2.74022L45.3019 8.34021H47.8594L49.2133 5.54021L51.6203 12.2602L52.5229 8.34021L53.7264 10.5802L54.4786 8.34021L56.8856 16.1802H58.1761L59.2272 16.5L59.744 13.9402L61.3988 12.2602L63.2345 10.5797L64.4958 13.9403L66.808 16.1804L71.2224 16.1802L72.6938 13.9402L74.7959 16.1802H75.8469L76.7434 13.9402L78.5 18.5" stroke="white" strokeLinecap="round"/>
</svg>
