<svg width="25" height="24" viewBox="0 0 25 24" fill="none" xmlns="http://www.w3.org/2000/svg">
<path d="M21.1612 19.3755C11.446 23.9991 5.41668 20.1307 1.55711 17.7811C1.31828 17.633 0.912358 17.8157 1.26455 18.2202C2.55037 19.7793 6.76426 23.5371 12.2646 23.5371C17.7687 23.5371 21.0432 20.5338 21.4528 20.0099C21.8597 19.4904 21.5723 19.2039 21.1611 19.3755H21.1612ZM23.8897 17.8687C23.6288 17.529 22.3032 17.4656 21.4691 17.5681C20.6336 17.6676 19.3795 18.1782 19.4885 18.4848C19.5445 18.5997 19.6587 18.5481 20.2326 18.4965C20.8081 18.4391 22.4204 18.2356 22.7563 18.6748C23.0939 19.117 22.2421 21.2235 22.0866 21.5633C21.9363 21.903 22.144 21.9906 22.4263 21.7643C22.7047 21.5382 23.2088 20.9524 23.5471 20.1235C23.883 19.29 24.088 18.1274 23.8897 17.8687Z" fill="#FF9900"/>
<path fill-rule="evenodd" clip-rule="evenodd" d="M14.6288 9.94199C14.6288 11.1551 14.6595 12.1669 14.0463 13.2442C13.5514 14.1202 12.7674 14.6589 11.8915 14.6589C10.6957 14.6589 9.99939 13.7479 9.99939 12.4034C9.99939 9.74922 12.3775 9.2675 14.6288 9.2675V9.94199ZM17.769 17.5321C17.5632 17.716 17.2653 17.7292 17.0332 17.6065C15.9996 16.7481 15.8157 16.3495 15.2463 15.5305C13.5382 17.2737 12.3294 17.7948 10.1133 17.7948C7.49423 17.7948 5.45325 16.1787 5.45325 12.9421C5.45325 10.415 6.82418 8.69374 8.77303 7.85291C10.4637 7.10826 12.8243 6.97689 14.6288 6.77111V6.36814C14.6288 5.62793 14.6857 4.75201 14.2521 4.11261C13.8711 3.53885 13.144 3.30233 12.5045 3.30233C11.3177 3.30233 10.2578 3.91108 9.99939 5.17243C9.94677 5.4528 9.74099 5.72874 9.46071 5.74185L6.43866 5.41782C6.18469 5.36076 5.90441 5.15498 5.97448 4.76512C6.67084 1.10376 9.97742 0 12.9381 0C14.4535 0 16.4331 0.402971 17.6288 1.55049C19.1442 2.96509 18.9996 4.85273 18.9996 6.90682V11.7596C18.9996 13.218 19.604 13.8574 20.1734 14.6458C20.3748 14.9261 20.4187 15.2634 20.1646 15.4735C19.5295 16.0034 18.3996 16.9889 17.7777 17.5408L17.7689 17.5321" fill="#2C2C2C"/>
<path d="M21.1612 19.3755C11.446 23.9991 5.41668 20.1307 1.55711 17.7811C1.31828 17.633 0.912358 17.8157 1.26455 18.2202C2.55037 19.7793 6.76426 23.5371 12.2646 23.5371C17.7687 23.5371 21.0432 20.5338 21.4528 20.0099C21.8597 19.4904 21.5723 19.2039 21.1611 19.3755H21.1612ZM23.8897 17.8687C23.6288 17.529 22.3032 17.4656 21.4691 17.5681C20.6336 17.6676 19.3795 18.1782 19.4885 18.4848C19.5445 18.5997 19.6587 18.5481 20.2326 18.4965C20.8081 18.4391 22.4204 18.2356 22.7563 18.6748C23.0939 19.117 22.2421 21.2235 22.0866 21.5633C21.9363 21.903 22.144 21.9906 22.4263 21.7643C22.7047 21.5382 23.2088 20.9524 23.5471 20.1235C23.883 19.29 24.088 18.1274 23.8897 17.8687Z" fill="#FF9900"/>
<path fill-rule="evenodd" clip-rule="evenodd" d="M14.6288 9.94199C14.6288 11.1551 14.6595 12.1669 14.0463 13.2442C13.5514 14.1202 12.7674 14.6589 11.8915 14.6589C10.6957 14.6589 9.99939 13.7479 9.99939 12.4034C9.99939 9.74922 12.3775 9.2675 14.6288 9.2675V9.94199ZM17.769 17.5321C17.5632 17.716 17.2653 17.7292 17.0332 17.6065C15.9996 16.7481 15.8157 16.3495 15.2463 15.5305C13.5382 17.2737 12.3294 17.7948 10.1133 17.7948C7.49423 17.7948 5.45325 16.1787 5.45325 12.9421C5.45325 10.415 6.82418 8.69374 8.77303 7.85291C10.4637 7.10826 12.8243 6.97689 14.6288 6.77111V6.36814C14.6288 5.62793 14.6857 4.75201 14.2521 4.11261C13.8711 3.53885 13.144 3.30233 12.5045 3.30233C11.3177 3.30233 10.2578 3.91108 9.99939 5.17243C9.94677 5.4528 9.74099 5.72874 9.46071 5.74185L6.43866 5.41782C6.18469 5.36076 5.90441 5.15498 5.97448 4.76512C6.67084 1.10376 9.97742 0 12.9381 0C14.4535 0 16.4331 0.402971 17.6288 1.55049C19.1442 2.96509 18.9996 4.85273 18.9996 6.90682V11.7596C18.9996 13.218 19.604 13.8574 20.1734 14.6458C20.3748 14.9261 20.4187 15.2634 20.1646 15.4735C19.5295 16.0034 18.3996 16.9889 17.7777 17.5408L17.7689 17.5321" fill="#2C2C2C"/>
</svg>
