<svg width="25" height="24" viewBox="0 0 25 24" fill="none" xmlns="http://www.w3.org/2000/svg">
<g clip-path="url(#clip0_170_6559)">
<rect x="0.5" width="24" height="24" rx="4" fill="#E41F2B"/>
<path d="M0.512329 8H24.4878V16.784H0.512329V8Z" fill="#E41F2B"/>
<path d="M22.1136 10.1056C22.1229 10.0473 22.1579 9.9984 22.1835 9.94948C22.2394 9.83764 22.2953 9.72813 22.3256 9.60697C22.3373 9.55571 22.3583 9.4928 22.3117 9.45319C22.2581 9.40659 22.1998 9.4462 22.1509 9.47416C22.0181 9.55105 21.9016 9.64658 21.7874 9.74444C21.4379 10.0403 21.1257 10.3759 20.8391 10.7347C20.3079 11.401 19.8396 12.1094 19.4108 12.8433C19.3246 12.9901 19.2384 13.1369 19.1639 13.3046C19.2291 13.3046 19.2664 13.2674 19.3037 13.2394C19.511 13.081 19.7114 12.9155 19.9025 12.7408C20.2123 12.4589 20.5106 12.1653 20.7995 11.8601C21.0162 11.6317 21.2236 11.3964 21.4169 11.1471C21.5078 11.0306 21.58 11.005 21.7455 11.0352C21.7012 11.1401 21.629 11.2263 21.5591 11.3125C21.163 11.8018 20.7389 12.2655 20.2846 12.7012C19.8908 13.0763 19.4714 13.4235 19.0217 13.7287C18.9379 13.7846 18.8796 13.8499 18.8377 13.9454C18.7235 14.204 18.6163 14.4673 18.5301 14.7376C18.4998 14.8331 18.4742 14.931 18.4579 15.0311C18.4462 15.0964 18.4486 15.1616 18.4649 15.2269C18.4975 15.3504 18.5814 15.3923 18.6909 15.3247C18.812 15.2525 18.9052 15.1453 18.9938 15.0381C19.2268 14.7609 19.4178 14.4533 19.6205 14.1551C19.8931 13.7567 20.1844 13.3745 20.5362 13.0413C20.7203 12.8666 20.923 12.7175 21.142 12.5917C21.2608 12.5241 21.3936 12.4891 21.5311 12.4868C21.6942 12.4845 21.827 12.5404 21.9156 12.6825C21.9202 12.6919 21.9319 12.6965 21.9389 12.7012C21.9458 12.6988 21.9505 12.6988 21.9528 12.6988C22.0111 12.559 22.1253 12.5451 22.2581 12.5521C22.4002 12.5614 22.5447 12.5521 22.6891 12.5544C22.7707 12.5567 22.78 12.5707 22.738 12.6429L22.1928 13.5656C21.8853 14.0875 21.5754 14.6071 21.2841 15.1383C21.2562 15.1873 21.2142 15.2455 21.2655 15.2968C21.3168 15.3504 21.375 15.3084 21.4239 15.2781C21.5567 15.1966 21.6732 15.0941 21.7781 14.9776C21.9761 14.7585 22.1579 14.5255 22.3303 14.2879C22.3862 14.211 22.5004 14.176 22.5866 14.2087C22.6146 14.2203 22.6215 14.239 22.6099 14.2623C22.6006 14.2832 22.5866 14.3019 22.5726 14.3228C22.3256 14.7003 22.046 15.0521 21.7338 15.3783C21.5637 15.5531 21.3843 15.7208 21.1723 15.8466C21.0581 15.9142 20.9393 15.9678 20.8065 15.9911C20.5828 16.0307 20.4127 15.9189 20.3941 15.6952C20.3894 15.63 20.3801 15.567 20.3731 15.4995C20.3172 15.4995 20.2962 15.5414 20.2659 15.5694C20.1028 15.7138 19.9304 15.8443 19.7324 15.9422C19.6275 15.9934 19.518 16.0121 19.4038 15.9934C19.2244 15.9631 19.0986 15.8257 19.073 15.6369C19.059 15.5414 19.066 15.4459 19.066 15.3387C19.0147 15.3573 18.9938 15.3946 18.9635 15.4249C18.8027 15.595 18.6373 15.7581 18.4369 15.8793C18.346 15.9352 18.2482 15.9725 18.1457 15.9934C17.8987 16.0424 17.668 15.8536 17.6237 15.5787C17.5958 15.397 17.6214 15.2222 17.6634 15.0475C17.7216 14.7982 17.8101 14.5558 17.8917 14.3135C17.901 14.2879 17.9103 14.2623 17.9173 14.2366C17.9453 14.1434 17.9406 14.1411 17.8404 14.1527C17.8288 14.1551 17.8171 14.1551 17.8055 14.1574C17.5352 14.176 17.5865 14.1551 17.4513 14.3718C17.2393 14.7119 17.011 15.0381 16.7314 15.3294C16.517 15.5531 16.2794 15.7418 16.0067 15.8886C15.8972 15.9492 15.7784 15.9841 15.6526 15.9981C15.3986 16.0237 15.2122 15.8909 15.1563 15.6416C15.105 15.4109 15.14 15.1849 15.2076 14.9636C15.3194 14.6024 15.4825 14.2623 15.6969 13.95C15.9205 13.6262 16.1582 13.3163 16.4494 13.0507C16.6801 12.8386 16.9341 12.6616 17.2253 12.5474C17.3278 12.5078 17.4327 12.4845 17.5422 12.4868C17.8265 12.4891 17.9686 12.6289 17.9849 12.9155C17.9965 13.1206 17.9593 13.3163 17.887 13.5073C17.8451 13.6192 17.7985 13.731 17.7449 13.8382C17.7309 13.8638 17.703 13.8941 17.7216 13.9244C17.7449 13.9617 17.7868 13.9337 17.8195 13.9314C17.8474 13.9314 17.8731 13.9221 17.8987 13.9174C18.0129 13.8965 18.0874 13.8335 18.141 13.7264C18.4672 13.0786 18.8353 12.4519 19.2501 11.8554C19.758 11.1261 20.3335 10.4551 21.0045 9.87259C21.2795 9.63493 21.5567 9.39494 21.8946 9.24116C22.0274 9.18058 22.1625 9.13631 22.3093 9.1433C22.4817 9.15029 22.561 9.22951 22.5703 9.40426C22.5773 9.53474 22.547 9.65823 22.5027 9.77939C22.4794 9.83997 22.4491 9.90055 22.4212 9.9588C22.3559 10.0846 22.272 10.1242 22.1136 10.1056ZM20.1261 15.3014C20.189 15.2991 20.2496 15.2525 20.3079 15.1989C20.5199 15.0078 20.6853 14.7749 20.8345 14.5349C21.1304 14.0642 21.4146 13.5889 21.7059 13.1159C21.7292 13.0763 21.7548 13.0367 21.7688 12.9924C21.7967 12.9039 21.7455 12.8456 21.6523 12.8596C21.5707 12.8713 21.4938 12.9016 21.4309 12.9575C21.3168 13.0623 21.1933 13.1578 21.0884 13.272C20.9113 13.4677 20.7389 13.6681 20.5898 13.8848C20.3685 14.204 20.1611 14.5325 20.026 14.9007C19.998 14.9776 19.9724 15.0568 19.9677 15.136C19.9607 15.2432 20.0143 15.3038 20.1261 15.3014ZM16.7267 13.6332C16.6685 13.6844 16.6312 13.7543 16.5869 13.8172C16.3819 14.1108 16.1955 14.4137 16.0697 14.7516C16.0347 14.8424 16.0114 14.9379 16.0044 15.0335C15.9881 15.2408 16.1302 15.348 16.3236 15.2735C16.4192 15.2362 16.5007 15.1779 16.5753 15.1104C16.8549 14.8587 17.0692 14.5535 17.2579 14.232C17.3185 14.1294 17.3162 14.1271 17.2044 14.0689C17.0482 13.9873 16.9084 13.8871 16.8059 13.738C16.7826 13.7031 16.7686 13.6611 16.7267 13.6332ZM17.7402 13.0879V13.0413C17.7286 12.8433 17.6098 12.7687 17.4234 12.8386C17.3115 12.8806 17.2183 12.9482 17.1414 13.0367C17.0646 13.1252 17.0086 13.2254 17.0016 13.3489C16.983 13.6355 17.1904 13.7963 17.3908 13.8825C17.442 13.9034 17.47 13.8755 17.4909 13.8335C17.5539 13.7147 17.6191 13.5936 17.6587 13.4631C17.696 13.3396 17.7449 13.2184 17.7402 13.0879ZM11.3142 10.956C11.3491 10.8512 11.4283 10.8419 11.5215 10.8465C11.6683 10.8512 11.8175 10.8488 11.9642 10.8488C12.104 10.8488 12.111 10.8605 12.0365 10.984C11.8757 11.2543 11.7126 11.5222 11.5495 11.7925C11.2373 12.3121 10.9251 12.8293 10.6129 13.3489C10.5919 13.3862 10.5709 13.4235 10.5663 13.4677C10.5569 13.5563 10.6035 13.5959 10.6851 13.5633C10.727 13.547 10.7666 13.519 10.8062 13.4934C11.0323 13.3396 11.214 13.1369 11.3887 12.9272C11.4726 12.827 11.5542 12.7221 11.638 12.6196C11.6916 12.5521 11.8338 12.5148 11.9107 12.5474C11.9316 12.5567 11.9386 12.5754 11.927 12.594C11.9107 12.6196 11.892 12.6453 11.8734 12.6709C11.6427 12.9831 11.4074 13.293 11.1371 13.5703C10.8948 13.8196 10.6431 14.0665 10.3216 14.218C10.2191 14.2669 10.1119 14.3065 9.99775 14.2902C9.83232 14.2669 9.72048 14.1434 9.7065 13.964C9.70184 13.9151 9.7065 13.8638 9.7065 13.8033C9.65058 13.8219 9.62961 13.8615 9.59932 13.8895C9.46418 14.0199 9.31506 14.1294 9.14498 14.211C9.03081 14.2646 8.91198 14.2902 8.78383 14.2856C8.55782 14.2762 8.41802 14.1388 8.40637 13.9104C8.39938 13.7893 8.41569 13.6704 8.43899 13.5516C8.44598 13.519 8.46462 13.4864 8.44598 13.4421C8.32483 13.5516 8.21765 13.6681 8.09183 13.766C7.9031 13.9151 7.71204 14.0619 7.49069 14.1644C7.29032 14.2553 7.08528 14.3205 6.85927 14.2832C6.58434 14.2366 6.34901 14.0153 6.31872 13.7077C6.29309 13.4374 6.356 13.1835 6.45153 12.9365C6.53308 12.7221 6.63326 12.5171 6.7684 12.2958C6.64957 12.3237 6.55871 12.3447 6.46551 12.3657C6.4259 12.375 6.41192 12.4076 6.39561 12.4379C6.15795 12.855 5.86204 13.2277 5.53352 13.5749C5.37042 13.7473 5.198 13.9081 5.00461 14.0456C4.86714 14.1411 4.72269 14.2226 4.55959 14.2669C4.19844 14.3671 3.90254 14.1597 3.87458 13.7846C3.85827 13.5633 3.89322 13.3489 3.96079 13.1415C4.11456 12.6802 4.36154 12.2701 4.66444 11.8903C4.87879 11.6224 5.11645 11.3777 5.38906 11.1704C5.5941 11.0143 5.81311 10.8815 6.06009 10.8046C6.16494 10.772 6.27212 10.751 6.38163 10.7673C6.63093 10.7999 6.78238 10.9653 6.79636 11.2193C6.81034 11.4779 6.73578 11.7179 6.63559 11.9509C6.61928 11.9882 6.58899 12.0232 6.59831 12.0767C6.66122 12.0814 6.71248 12.0558 6.76374 12.0301C6.96179 11.9346 7.13188 11.8018 7.29731 11.6597C7.48603 11.4966 7.65146 11.3125 7.84718 11.1587C8.03358 11.0119 8.2293 10.8791 8.45763 10.8046C8.60442 10.7556 8.75587 10.7533 8.90499 10.7883C9.15197 10.8465 9.2871 11.0982 9.22652 11.3777C9.17993 11.5921 9.07508 11.7762 8.92596 11.9346C8.87703 11.9859 8.82111 12.0278 8.75354 12.0488C8.57413 12.1047 8.43899 11.9835 8.4786 11.8018C8.52753 11.5711 8.66267 11.4197 8.89567 11.3684C8.95392 11.3544 9.00052 11.3451 8.99819 11.2706C8.99586 11.1983 8.95625 11.1424 8.88402 11.1308C8.81878 11.1191 8.75354 11.1308 8.69063 11.1564C8.55083 11.2123 8.44132 11.3125 8.33181 11.4127C7.83087 11.874 7.48137 12.4356 7.2344 13.067C7.1878 13.1835 7.15518 13.3023 7.1645 13.4305C7.18081 13.6961 7.34158 13.8149 7.59787 13.7403C7.78893 13.6844 7.94271 13.5656 8.08717 13.4351C8.46462 13.0926 8.78383 12.6965 9.08673 12.2864C9.33836 11.9463 9.60631 11.6177 9.9162 11.3288C10.1399 11.1191 10.3729 10.9187 10.6711 10.8139C10.7294 10.7929 10.7899 10.7789 10.8528 10.772C10.9926 10.7556 11.1138 10.7929 11.2163 10.8885C11.2443 10.9071 11.2629 10.9397 11.3142 10.956ZM11.0043 11.1261C10.9624 11.1238 10.9158 11.1424 10.8692 11.1634C10.748 11.2193 10.6688 11.3195 10.5802 11.4127C10.1655 11.8577 9.81601 12.3517 9.51544 12.8783C9.41991 13.046 9.33137 13.2208 9.30108 13.4165C9.28011 13.5586 9.35933 13.6238 9.49214 13.5726C9.60398 13.5306 9.69252 13.4561 9.76941 13.3675C9.95581 13.1532 10.1189 12.9225 10.2727 12.6849C10.5639 12.2305 10.8389 11.7669 11.1045 11.2985C11.1721 11.1867 11.1371 11.1261 11.0043 11.1261ZM5.50323 11.8927C5.49624 11.895 5.48692 11.8973 5.48459 11.902C5.25392 12.2235 5.03723 12.5544 4.88578 12.9202C4.82986 13.0553 4.7856 13.1975 4.79026 13.3489C4.79492 13.5143 4.8951 13.5912 5.06053 13.5563C5.18402 13.5306 5.27955 13.4607 5.37042 13.3792C5.64303 13.1322 5.85272 12.834 6.04611 12.5264C6.06941 12.4915 6.09271 12.4542 6.11368 12.4169C6.15329 12.3447 6.15096 12.3354 6.07873 12.3074C6.06708 12.3027 6.05776 12.3004 6.04611 12.2958C5.8434 12.2165 5.66633 12.1047 5.54284 11.9183C5.53119 11.9067 5.52187 11.895 5.50323 11.8927ZM5.7735 11.6876C5.77117 11.7389 5.78748 11.7902 5.81777 11.8368C5.91563 11.9859 6.06475 12.0558 6.23251 12.0884C6.28377 12.0977 6.31173 12.0721 6.3327 12.0278C6.43755 11.8251 6.50745 11.6107 6.52143 11.3847C6.53308 11.203 6.4492 11.0888 6.27678 11.1098C6.03679 11.1401 5.7735 11.4383 5.7735 11.6876Z" fill="white"/>
<path d="M17.1647 9.42748C17.0832 9.37389 17.0086 9.38787 16.9364 9.39719C16.7546 9.42049 16.5962 9.49971 16.4378 9.58825C16.037 9.8096 15.6852 10.0962 15.3543 10.4084C14.9233 10.8138 14.5249 11.2472 14.1777 11.7272C13.7956 12.2514 13.4531 12.8013 13.1968 13.4001C13.0337 13.7845 12.9125 14.1806 12.8589 14.5954C12.8333 14.8027 12.8589 15.0078 12.9801 15.1872C13.1152 15.3899 13.3505 15.4831 13.5905 15.4342C13.721 15.4062 13.8422 15.3526 13.954 15.2827C14.2616 15.087 14.5179 14.833 14.7369 14.5441C14.9419 14.2738 15.1143 13.9849 15.2308 13.6634C15.2868 13.5049 15.3264 13.3442 15.338 13.1764C15.3403 13.1531 15.3403 13.1298 15.338 13.1065C15.324 12.8689 15.1679 12.7873 14.9629 12.9155C14.8091 13.011 14.6973 13.1531 14.5994 13.3022C14.4806 13.4863 14.399 13.689 14.3501 13.901C14.3361 13.9593 14.3105 13.9942 14.2546 14.0222C13.954 14.1666 13.6954 14.3694 13.4577 14.6C13.4461 14.6117 13.4344 14.621 13.4228 14.6303C13.4181 14.635 13.4088 14.6326 13.4018 14.635C13.3762 14.6187 13.3855 14.593 13.3878 14.5721C13.4461 14.1643 13.5602 13.7752 13.7816 13.4234C14.0053 13.0669 14.2988 12.785 14.6786 12.5986C14.8487 12.5147 15.0258 12.4611 15.2192 12.5077C15.3683 12.545 15.4732 12.6359 15.5314 12.7803C15.5943 12.9364 15.5873 13.0995 15.5733 13.2626C15.5477 13.5725 15.4219 13.8474 15.2821 14.1177C15.14 14.395 14.9722 14.6559 14.7742 14.8959C14.441 15.3037 14.0519 15.6462 13.5719 15.8699C13.2993 15.998 13.008 16.0469 12.7098 15.977C12.3254 15.8838 12.083 15.6299 11.9572 15.2664C11.8128 14.8517 11.8337 14.4299 11.9689 14.0199C12.1483 13.4677 12.4046 12.9504 12.6958 12.4471C12.9195 12.0627 13.1688 11.6992 13.4507 11.3567C13.8958 10.8138 14.3967 10.3292 14.9675 9.91911C15.3357 9.65582 15.7201 9.42515 16.1372 9.25041C16.4051 9.13857 16.6847 9.08032 16.976 9.08265C17.1321 9.08498 17.2766 9.12925 17.3977 9.22478C17.449 9.26439 17.4886 9.26672 17.5445 9.24575C17.8008 9.14556 18.0687 9.09896 18.3413 9.08964C18.7305 9.07566 19.0963 9.16886 19.4364 9.35292C19.8116 9.55563 20.1867 9.763 20.5595 9.96804C20.5735 9.97503 20.5874 9.98202 20.5991 9.99134C20.662 10.0333 20.662 10.0403 20.6084 10.0962C20.4616 10.2453 20.3125 10.3921 20.168 10.5459C20.1191 10.5971 20.0772 10.5925 20.0259 10.5599L19.4947 10.2453C19.2617 10.1055 19.0287 9.96338 18.7957 9.82824C18.5394 9.67912 18.2621 9.57893 17.9709 9.51835C17.8754 9.49738 17.7775 9.49505 17.682 9.51602C17.6377 9.52534 17.6074 9.54398 17.6074 9.5999C17.5981 10.0752 17.4303 10.5039 17.202 10.9093C17.0272 11.2192 16.8012 11.4895 16.5007 11.6922C16.3702 11.7784 16.2304 11.846 16.0813 11.8879C15.8203 11.9648 15.6129 11.8157 15.5966 11.5431C15.5873 11.373 15.6269 11.2122 15.6898 11.0561C15.8646 10.6228 16.1558 10.2709 16.489 9.95173C16.6754 9.77465 16.8781 9.61854 17.0948 9.48107C17.1111 9.46243 17.1298 9.45078 17.1647 9.42748ZM17.3441 9.8096C17.3488 9.62786 17.3441 9.62087 17.2183 9.69077C16.9806 9.82358 16.7709 9.996 16.5776 10.1894C16.2933 10.4713 16.0626 10.7905 15.8925 11.1517C15.8506 11.2425 15.8157 11.3381 15.8133 11.4406C15.811 11.6037 15.9298 11.6899 16.0836 11.641C16.2653 11.585 16.4145 11.4755 16.5543 11.3474C16.7942 11.1237 16.9737 10.8581 17.1181 10.5692C17.2439 10.3199 17.3255 10.0519 17.3441 9.8096ZM11.2745 16.1425C11.1557 16.0772 11.0555 16.019 10.9507 15.9677C10.4963 15.7487 10.021 15.6206 9.51075 15.6462C9.2428 15.6602 9.00048 15.7371 8.80011 15.9211C8.76982 15.9491 8.74186 15.9817 8.7139 16.0143C8.63235 16.1122 8.63002 16.1145 8.56012 16.012C8.44129 15.8396 8.28751 15.7068 8.10344 15.6042C7.83783 15.4551 7.54891 15.3899 7.24601 15.3643C6.68449 15.3177 6.13928 15.4132 5.59872 15.5437C5.00691 15.6881 4.4151 15.8326 3.81396 15.9374C3.53437 15.9864 3.25244 16.0213 2.96818 15.9747C2.46491 15.8908 2.03852 15.6788 1.74495 15.2478C1.6168 15.0614 1.56321 14.847 1.52593 14.628C1.43972 14.127 1.50729 13.6377 1.66107 13.1601C1.8498 12.5706 2.1457 12.0371 2.50452 11.5338C2.82605 11.0818 3.19885 10.6763 3.60427 10.3036C4.09822 9.84921 4.64343 9.46476 5.27486 9.22012C5.53348 9.11993 5.7991 9.05469 6.08103 9.05469C6.49809 9.05702 6.73808 9.31797 6.67983 9.72572C6.64488 9.96804 6.54003 10.1847 6.36295 10.3595C6.29772 10.4224 6.22316 10.469 6.12996 10.4853C6.0088 10.5063 5.90628 10.4364 5.88065 10.3152C5.84104 10.1265 5.94123 9.90979 6.11598 9.81193C6.18821 9.77232 6.26277 9.7397 6.34431 9.73038C6.40023 9.72339 6.4212 9.68844 6.42586 9.63485C6.43751 9.49971 6.36295 9.41117 6.22549 9.40185C6.12763 9.39486 6.0321 9.4135 5.9389 9.44379C5.58474 9.56262 5.27486 9.763 4.99293 10.0053C4.34753 10.5622 3.8093 11.2146 3.34098 11.9229C3.03109 12.3912 2.79111 12.8968 2.64199 13.4397C2.54879 13.7799 2.47889 14.127 2.50452 14.4859C2.52549 14.7841 2.63034 15.0427 2.85634 15.2478C2.98449 15.3619 3.13361 15.4342 3.29438 15.4808C3.43884 15.5227 3.58796 15.5507 3.74173 15.5576C4.22637 15.5833 4.70168 15.511 5.17234 15.4015C5.78512 15.2571 6.39557 15.1126 7.00836 14.9682C7.45571 14.861 7.90773 14.7864 8.36673 14.7957C9.15426 14.8121 9.88121 15.0218 10.5383 15.4644C10.7713 15.6206 10.981 15.8046 11.179 16.0027C11.2163 16.0353 11.2536 16.0702 11.2745 16.1425ZM24.0964 9.12226C24.108 9.16187 24.0894 9.18284 24.0754 9.20614C23.7329 9.77232 23.2809 10.2267 22.6984 10.5459C22.3209 10.7532 21.9225 10.8977 21.4891 10.9373C21.3097 10.9536 21.1327 10.9443 20.9556 10.907C20.867 10.8884 20.86 10.8721 20.9136 10.8045C21.0488 10.6344 21.1909 10.469 21.34 10.3105C21.3773 10.2709 21.4216 10.2733 21.4682 10.2733C21.6383 10.2733 21.8083 10.2803 21.9808 10.257C22.3722 10.2034 22.7287 10.0589 23.0735 9.87484C23.4277 9.68378 23.7422 9.43913 24.0358 9.1642C24.0475 9.15255 24.0591 9.14323 24.0708 9.13391C24.0754 9.12692 24.0824 9.12692 24.0964 9.12226ZM12.9544 10.8464C13.043 10.8464 13.1339 10.8441 13.2224 10.8464C13.2806 10.8488 13.2923 10.8674 13.2597 10.9187C13.1572 11.0888 13.0523 11.2542 12.9475 11.4243C12.9218 11.4662 12.8892 11.4825 12.8426 11.4802C12.6679 11.4802 12.4931 11.4825 12.3184 11.4779C12.2391 11.4779 12.2275 11.4569 12.2694 11.387C12.3673 11.2239 12.4675 11.0631 12.5677 10.9C12.5933 10.8581 12.6259 10.8418 12.6749 10.8441C12.7681 10.8464 12.8613 10.8464 12.9544 10.8464Z" fill="white"/>
</g>
<defs>
<clipPath id="clip0_170_6559">
<rect x="0.5" width="24" height="24" rx="4" fill="white"/>
</clipPath>
</defs>
</svg>
